<mxfile host="app.diagrams.net" modified="2020-08-11T02:05:06.378Z" agent="5.0 (Macintosh; Intel Mac OS X 10_15_5) AppleWebKit/537.36 (KHTML, like Gecko) Chrome/84.0.4147.105 Safari/537.36" etag="XXkgug-GicfSE-Y7d3TH" version="13.5.8" type="github">
  <diagram id="iXRVtZx-X0tlj7Ij8ezm" name="Page-1">
    <mxGraphModel dx="2066" dy="1105" grid="1" gridSize="10" guides="1" tooltips="1" connect="1" arrows="1" fold="1" page="1" pageScale="1" pageWidth="827" pageHeight="1169" math="0" shadow="0">
      <root>
        <mxCell id="0" />
        <mxCell id="1" parent="0" />
        <mxCell id="H0YqGa879R5bgUqhw6YY-1" value="&lt;h1&gt;Program 1&lt;/h1&gt;&lt;p&gt;while(1){&lt;/p&gt;&lt;p&gt;&lt;span&gt;&lt;/span&gt;&amp;nbsp; &amp;nbsp; p1_wants_to_enter = true;&lt;/p&gt;&lt;p&gt;&amp;nbsp; &amp;nbsp; favored = 1;&lt;/p&gt;&lt;p&gt;&amp;nbsp; &amp;nbsp; while(p2_wants_to_enter == true &amp;amp;&amp;amp; favored ==2);&lt;/p&gt;&lt;p&gt;&amp;nbsp; &amp;nbsp; // critical section&lt;/p&gt;&lt;p&gt;&amp;nbsp; &amp;nbsp; p1_wants_to_enter = false;&lt;/p&gt;&lt;p&gt;}&lt;/p&gt;" style="text;html=1;fillColor=none;spacing=5;spacingTop=-20;whiteSpace=wrap;overflow=hidden;rounded=0;strokeColor=#00FF00;strokeWidth=2;" vertex="1" parent="1">
          <mxGeometry x="150" y="240" width="230" height="230" as="geometry" />
        </mxCell>
        <mxCell id="H0YqGa879R5bgUqhw6YY-2" value="&lt;h1&gt;Program 2&lt;/h1&gt;&lt;p&gt;while(1){&lt;/p&gt;&lt;p&gt;&lt;span&gt;&lt;/span&gt;&amp;nbsp; &amp;nbsp; p2_wants_to_enter = true;&lt;/p&gt;&amp;nbsp; &amp;nbsp; favored = 1;&lt;p&gt;&amp;nbsp; &amp;nbsp; while(p1_wants_to_enter == true &amp;amp;&amp;amp; favored == 1);&lt;/p&gt;&lt;p&gt;&amp;nbsp; &amp;nbsp; // critical section&lt;/p&gt;&lt;p&gt;&amp;nbsp; &amp;nbsp; p2_wants_to_enter = false;&lt;/p&gt;&lt;p&gt;}&lt;/p&gt;" style="text;html=1;fillColor=none;spacing=5;spacingTop=-20;whiteSpace=wrap;overflow=hidden;rounded=0;strokeWidth=2;strokeColor=#FF0080;" vertex="1" parent="1">
          <mxGeometry x="530" y="240" width="230" height="240" as="geometry" />
        </mxCell>
        <mxCell id="H0YqGa879R5bgUqhw6YY-3" value="p1_wants_to_enter,p2_wants_to_enter, favored" style="text;html=1;fillColor=none;align=center;verticalAlign=middle;whiteSpace=wrap;rounded=0;strokeColor=#000000;" vertex="1" parent="1">
          <mxGeometry x="290" y="170" width="296" height="40" as="geometry" />
        </mxCell>
        <mxCell id="H0YqGa879R5bgUqhw6YY-4" value="&lt;font style=&quot;font-size: 20px&quot;&gt;globally defined&lt;/font&gt;" style="text;html=1;align=center;verticalAlign=middle;resizable=0;points=[];autosize=1;" vertex="1" parent="1">
          <mxGeometry x="357" y="130" width="150" height="20" as="geometry" />
        </mxCell>
      </root>
    </mxGraphModel>
  </diagram>
</mxfile>
